<?xml version="1.0" encoding="utf-8"?>
<!-- Generator: Adobe Illustrator 28.2.0, SVG Export Plug-In . SVG Version: 6.00 Build 0)  -->
<svg version="1.1" id="Layer_1" xmlns="http://www.w3.org/2000/svg" xmlns:xlink="http://www.w3.org/1999/xlink" x="0px" y="0px"
	 viewBox="0 0 800 800" style="enable-background:new 0 0 800 800;" xml:space="preserve">
<style type="text/css">
	.st0{fill:#FFFFFF;}
</style>
<path class="st0" d="M800,178.7v-93c0-8.6-10.3-12-15.4-5.7l-65.6,75.9c-38.8-11.4-84.5-12.6-123.3-1.1L530,81.1
	c-5.1-6.3-15.4-3.4-15.4,5.1v199.2H204.7c-167.2,0-169.5-219.8-18.8-219.8c28,0,57.6,12,81.6,34.8c39.4,37.1,80.5-4.6,47.9-41.1
	C279.4,18.8,234.9,0,184.7,0c-228.9,0-246,310.5-31.4,372.2l0.6,1.1C153.3,520,78,534.8,74,597l-9.7,158.1c-2.9,44.5-0.6,44,22.8,44
	h13.7c19.4,0,18.3,0.6,28.5-44l32.5-119.9c42.2-20,114.2-40.5,187.2-103.9c91.9,8.6,185.5,8,242,0l36.5,226
	c6.3,41.1,13.1,41.7,27.4,41.7h22.8c15.4,0,13.7,2.3,13.7-42.2v-290C691.5,403.5,800,377.3,800,178.7z M602.5,285.4
	c-15.4,0-28.5-12.6-28.5-28.5c0-15.4,13.1-28.5,28.5-28.5c16,0,29.1,13.1,29.1,28.5C631.6,272.8,618.5,285.4,602.5,285.4z
	 M683,256.9c0-14.8,14.3-28.5,28.5-28.5c16,0,29.1,13.7,29.1,28.5c0,16-13.1,28.5-29.1,28.5C697.3,285.4,683,272.8,683,256.9z
	 M462.7,756.9c-4,44.5,1.7,42.2,16,42.2h22.3c13.7,0,15.4,0,22.8-41.7l33.1-191.2l-78.8,7.4L462.7,756.9z M286.3,623.3l-78.2,24.5
	l23.4,107.3c9.7,44,4.6,44,26.3,44h17.7c18.3,0,18.3,0.6,16.6-44L286.3,623.3z"/>
</svg>
